<!--=================================--><!--VERIDACTUS FAVICON / ICON MARK--><!--Minimal Protocol Identity SVG--><!--=================================--><svg xmlns="http://www.w3.org/2000/svg" width="512" height="512" fill="none" viewBox="0 0 512 512"><defs><linearGradient id="b" x1="0" x2="1" y1="0" y2="1"><stop offset="0%" stop-color="#00c2ff"/><stop offset="100%" stop-color="#3b3bff"/></linearGradient><filter id="a" width="200%" height="200%" x="-50%" y="-50%"><feDropShadow dx="0" dy="0" flood-color="#3b82f6" flood-opacity=".22" stdDeviation="10"/></filter></defs><!--Transparent Background--><path d="M0 0h512v512H0z"/><!--Main Symbol--><g filter="url(#a)"><!--Top Arc--><path stroke="url(#b)" stroke-linecap="round" stroke-width="20" d="M156 84a160 160 0 0 1 200 0"/><!--Bottom Arc--><path stroke="url(#b)" stroke-linecap="round" stroke-width="20" d="M132 404a160 160 0 0 0 248 0" opacity=".9"/><!--Main V--><path fill="url(#b)" d="m120 136 136 252 136-252-72 32-64 124-64-124Z"/><!--Governance Core--><path fill="url(#b)" d="M256 112c-18 38-42 66-74 80 24 12 44 36 74 100 30-64 50-88 74-100-32-14-56-42-74-80" opacity=".96"/><!--Runtime Line--><path stroke="#fff" stroke-linecap="round" stroke-width="10" d="M256 82v204"/><!--Top Node--><circle cx="256" cy="70" r="22" fill="#fff"/><circle cx="256" cy="70" r="11" fill="url(#b)"/><!--Bottom Node--><circle cx="256" cy="250" r="12" fill="#fff"/><circle cx="256" cy="250" r="6" fill="url(#b)"/></g></svg>