<svg xmlns="http://www.w3.org/2000/svg" fill="none" viewBox="160 20 1350 440"><defs><linearGradient id="b" x1="0" x2="1" y1="0" y2="1"><stop offset="0%" stop-color="#38bdf8"/><stop offset="100%" stop-color="#6366f1"/></linearGradient><linearGradient id="c" x1="0" x2="1" y1="0" y2="0"><stop offset="0%" stop-color="#e5e7eb"/><stop offset="100%" stop-color="#cbd5e1"/></linearGradient><filter id="a" width="200%" height="200%" x="-50%" y="-50%"><feDropShadow dx="0" dy="0" flood-color="#60a5fa" flood-opacity=".28" stdDeviation="12"/></filter></defs><path fill="#0b1220" d="M0 0h1680v504H0z"/><g filter="url(#a)" transform="translate(84 48)"><path stroke="url(#b)" stroke-linecap="round" stroke-width="22" d="M192 36a180 180 0 0 1 240 0"/><path stroke="url(#b)" stroke-linecap="round" stroke-width="22" d="M144 372a180 180 0 0 1 336 0" opacity=".85"/><path fill="url(#b)" d="m132 108 180 300 180-300-108 48-72 144-72-144Z"/><path fill="url(#b)" d="M312 72c-24 54-54 90-96 108 30 12 54 42 96 120 42-78 66-108 96-120-42-18-72-54-96-108" opacity=".96"/><path stroke="#fff" stroke-linecap="round" stroke-width="10" d="M312 34v260"/><circle cx="312" cy="24" r="22" fill="#fff"/><circle cx="312" cy="24" r="12" fill="url(#b)"/><circle cx="312" cy="246" r="12" fill="#fff"/><circle cx="312" cy="246" r="6" fill="url(#b)"/></g><text y="108" fill="url(#c)" font-family="Inter, Arial, sans-serif" font-size="106" font-weight="700" letter-spacing="2" transform="translate(624 132)">
      Veridactus
    </text><g transform="translate(630 300)"><path stroke="url(#b)" stroke-linecap="round" stroke-width="5" d="M0 14h108"/><circle cy="14" r="8" fill="#0b1220" stroke="url(#b)" stroke-width="5"/><text x="144" y="28" fill="url(#b)" font-family="Inter, Arial, sans-serif" font-size="42" font-weight="500" letter-spacing="12">
        Protocol
      </text><path stroke="url(#b)" stroke-linecap="round" stroke-width="5" d="M744 14h120"/><circle cx="864" cy="14" r="8" fill="#0b1220" stroke="url(#b)" stroke-width="5"/></g><text y="300" fill="#94a3b8" font-family="Inter, Arial, sans-serif" font-size="34" font-weight="500" letter-spacing="6" transform="translate(624 132)">
      Verifiable • Auditable • Trusted
    </text></svg>